<mxfile host="app.diagrams.net" modified="2021-12-26T21:55:44.304Z" agent="5.0 (Windows)" etag="uTO4ydx4Q3wu6maIqiVT" version="16.1.0" type="github">
  <diagram id="AuVxn6FzPRXnkKvPcby_" name="Page-1">
    <mxGraphModel dx="1100" dy="1466" grid="1" gridSize="10" guides="1" tooltips="1" connect="1" arrows="1" fold="1" page="1" pageScale="1" pageWidth="827" pageHeight="1169" math="0" shadow="0">
      <root>
        <mxCell id="0" />
        <mxCell id="1" parent="0" />
        <mxCell id="f3NqG187g-GbprsVJhg_-12" style="edgeStyle=orthogonalEdgeStyle;rounded=0;orthogonalLoop=1;jettySize=auto;html=1;entryX=0;entryY=0.5;entryDx=0;entryDy=0;" edge="1" parent="1" source="f3NqG187g-GbprsVJhg_-2" target="f3NqG187g-GbprsVJhg_-3">
          <mxGeometry relative="1" as="geometry" />
        </mxCell>
        <mxCell id="f3NqG187g-GbprsVJhg_-13" style="edgeStyle=orthogonalEdgeStyle;rounded=0;orthogonalLoop=1;jettySize=auto;html=1;entryX=0;entryY=0.5;entryDx=0;entryDy=0;" edge="1" parent="1" source="f3NqG187g-GbprsVJhg_-2" target="f3NqG187g-GbprsVJhg_-7">
          <mxGeometry relative="1" as="geometry" />
        </mxCell>
        <mxCell id="f3NqG187g-GbprsVJhg_-14" style="edgeStyle=orthogonalEdgeStyle;rounded=0;orthogonalLoop=1;jettySize=auto;html=1;entryX=0;entryY=0.5;entryDx=0;entryDy=0;" edge="1" parent="1" source="f3NqG187g-GbprsVJhg_-2" target="f3NqG187g-GbprsVJhg_-8">
          <mxGeometry relative="1" as="geometry" />
        </mxCell>
        <mxCell id="f3NqG187g-GbprsVJhg_-2" value="" style="whiteSpace=wrap;html=1;aspect=fixed;" vertex="1" parent="1">
          <mxGeometry x="363.5" y="190" width="80" height="80" as="geometry" />
        </mxCell>
        <mxCell id="f3NqG187g-GbprsVJhg_-3" value="&lt;div&gt;Water&lt;/div&gt;&lt;div&gt;Bomb&lt;br&gt;&lt;/div&gt;" style="whiteSpace=wrap;html=1;aspect=fixed;" vertex="1" parent="1">
          <mxGeometry x="520" y="90" width="80" height="80" as="geometry" />
        </mxCell>
        <mxCell id="f3NqG187g-GbprsVJhg_-9" style="edgeStyle=orthogonalEdgeStyle;rounded=0;orthogonalLoop=1;jettySize=auto;html=1;entryX=0;entryY=0.5;entryDx=0;entryDy=0;" edge="1" parent="1" source="f3NqG187g-GbprsVJhg_-4" target="f3NqG187g-GbprsVJhg_-2">
          <mxGeometry relative="1" as="geometry" />
        </mxCell>
        <mxCell id="f3NqG187g-GbprsVJhg_-4" value="&lt;div&gt;Water&lt;/div&gt;&lt;div&gt;Level&lt;/div&gt;&lt;div&gt;Sensor&lt;br&gt;&lt;/div&gt;" style="whiteSpace=wrap;html=1;aspect=fixed;" vertex="1" parent="1">
          <mxGeometry x="210" y="90" width="80" height="80" as="geometry" />
        </mxCell>
        <mxCell id="f3NqG187g-GbprsVJhg_-10" style="edgeStyle=orthogonalEdgeStyle;rounded=0;orthogonalLoop=1;jettySize=auto;html=1;" edge="1" parent="1" source="f3NqG187g-GbprsVJhg_-6">
          <mxGeometry relative="1" as="geometry">
            <mxPoint x="360" y="230" as="targetPoint" />
          </mxGeometry>
        </mxCell>
        <mxCell id="f3NqG187g-GbprsVJhg_-6" value="Proximity Sensor" style="whiteSpace=wrap;html=1;aspect=fixed;" vertex="1" parent="1">
          <mxGeometry x="210" y="190" width="80" height="80" as="geometry" />
        </mxCell>
        <mxCell id="f3NqG187g-GbprsVJhg_-7" value="Display" style="whiteSpace=wrap;html=1;aspect=fixed;" vertex="1" parent="1">
          <mxGeometry x="520" y="190" width="80" height="80" as="geometry" />
        </mxCell>
        <mxCell id="f3NqG187g-GbprsVJhg_-8" value="&lt;div&gt;LEDs&lt;/div&gt;" style="whiteSpace=wrap;html=1;aspect=fixed;" vertex="1" parent="1">
          <mxGeometry x="520" y="290" width="80" height="80" as="geometry" />
        </mxCell>
        <mxCell id="f3NqG187g-GbprsVJhg_-15" value="INPUTS" style="text;html=1;strokeColor=none;fillColor=none;align=center;verticalAlign=middle;whiteSpace=wrap;rounded=0;" vertex="1" parent="1">
          <mxGeometry x="220" y="40" width="60" height="30" as="geometry" />
        </mxCell>
        <mxCell id="f3NqG187g-GbprsVJhg_-16" value="OUTPUTS" style="text;html=1;strokeColor=none;fillColor=none;align=center;verticalAlign=middle;whiteSpace=wrap;rounded=0;" vertex="1" parent="1">
          <mxGeometry x="530" y="40" width="60" height="30" as="geometry" />
        </mxCell>
        <mxCell id="f3NqG187g-GbprsVJhg_-19" style="edgeStyle=orthogonalEdgeStyle;rounded=0;orthogonalLoop=1;jettySize=auto;html=1;" edge="1" parent="1" source="f3NqG187g-GbprsVJhg_-18">
          <mxGeometry relative="1" as="geometry">
            <mxPoint x="360" y="470" as="targetPoint" />
          </mxGeometry>
        </mxCell>
        <mxCell id="f3NqG187g-GbprsVJhg_-18" value="&lt;div&gt;Water&lt;/div&gt;&lt;div&gt;Level&lt;/div&gt;&lt;div&gt;Sensor&lt;br&gt;&lt;/div&gt;" style="whiteSpace=wrap;html=1;aspect=fixed;" vertex="1" parent="1">
          <mxGeometry x="210" y="430" width="80" height="80" as="geometry" />
        </mxCell>
        <mxCell id="f3NqG187g-GbprsVJhg_-20" value="WaterLevelSensor_getStatus()&lt;div&gt;WaterLevelSensor_INTERRUPT_lowLevel()&lt;br&gt;&lt;/div&gt;" style="text;html=1;strokeColor=none;fillColor=none;align=center;verticalAlign=middle;whiteSpace=wrap;rounded=0;" vertex="1" parent="1">
          <mxGeometry x="480" y="455" width="60" height="30" as="geometry" />
        </mxCell>
        <mxCell id="f3NqG187g-GbprsVJhg_-23" style="edgeStyle=orthogonalEdgeStyle;rounded=0;orthogonalLoop=1;jettySize=auto;html=1;" edge="1" parent="1" source="f3NqG187g-GbprsVJhg_-22">
          <mxGeometry relative="1" as="geometry">
            <mxPoint x="360" y="570" as="targetPoint" />
          </mxGeometry>
        </mxCell>
        <mxCell id="f3NqG187g-GbprsVJhg_-22" value="Proximity Sensor" style="whiteSpace=wrap;html=1;aspect=fixed;" vertex="1" parent="1">
          <mxGeometry x="210" y="530" width="80" height="80" as="geometry" />
        </mxCell>
        <mxCell id="f3NqG187g-GbprsVJhg_-24" value="&lt;div&gt;ProximitySensor_getStatus()&lt;/div&gt;&lt;div&gt;WaterLevelSensor_INTERRUPT_catDetected()&lt;br&gt;&lt;/div&gt;" style="text;html=1;strokeColor=none;fillColor=none;align=center;verticalAlign=middle;whiteSpace=wrap;rounded=0;" vertex="1" parent="1">
          <mxGeometry x="490" y="555" width="60" height="30" as="geometry" />
        </mxCell>
        <mxCell id="f3NqG187g-GbprsVJhg_-31" value="&lt;div&gt;Water&lt;/div&gt;&lt;div&gt;Bomb&lt;br&gt;&lt;/div&gt;" style="whiteSpace=wrap;html=1;aspect=fixed;" vertex="1" parent="1">
          <mxGeometry x="520" y="670" width="80" height="80" as="geometry" />
        </mxCell>
        <mxCell id="f3NqG187g-GbprsVJhg_-32" value="Display" style="whiteSpace=wrap;html=1;aspect=fixed;" vertex="1" parent="1">
          <mxGeometry x="520" y="770" width="80" height="80" as="geometry" />
        </mxCell>
        <mxCell id="f3NqG187g-GbprsVJhg_-33" value="&lt;div&gt;LEDs&lt;/div&gt;" style="whiteSpace=wrap;html=1;aspect=fixed;" vertex="1" parent="1">
          <mxGeometry x="520" y="870" width="80" height="80" as="geometry" />
        </mxCell>
        <mxCell id="f3NqG187g-GbprsVJhg_-34" style="edgeStyle=orthogonalEdgeStyle;rounded=0;orthogonalLoop=1;jettySize=auto;html=1;" edge="1" parent="1">
          <mxGeometry relative="1" as="geometry">
            <mxPoint x="520" y="709" as="targetPoint" />
            <mxPoint x="450" y="709" as="sourcePoint" />
          </mxGeometry>
        </mxCell>
        <mxCell id="f3NqG187g-GbprsVJhg_-35" style="edgeStyle=orthogonalEdgeStyle;rounded=0;orthogonalLoop=1;jettySize=auto;html=1;" edge="1" parent="1">
          <mxGeometry relative="1" as="geometry">
            <mxPoint x="520" y="809" as="targetPoint" />
            <mxPoint x="450" y="809" as="sourcePoint" />
          </mxGeometry>
        </mxCell>
        <mxCell id="f3NqG187g-GbprsVJhg_-36" style="edgeStyle=orthogonalEdgeStyle;rounded=0;orthogonalLoop=1;jettySize=auto;html=1;" edge="1" parent="1">
          <mxGeometry relative="1" as="geometry">
            <mxPoint x="520" y="909" as="targetPoint" />
            <mxPoint x="450" y="909" as="sourcePoint" />
          </mxGeometry>
        </mxCell>
        <mxCell id="f3NqG187g-GbprsVJhg_-37" value="&lt;div&gt;WaterBomb_Start()&lt;/div&gt;&lt;div&gt;WaterBomb_Stop()&lt;br&gt;&lt;/div&gt;" style="text;html=1;strokeColor=none;fillColor=none;align=center;verticalAlign=middle;whiteSpace=wrap;rounded=0;" vertex="1" parent="1">
          <mxGeometry x="350" y="695" width="60" height="30" as="geometry" />
        </mxCell>
        <mxCell id="f3NqG187g-GbprsVJhg_-38" value="&lt;div&gt;ProximitySensor_Ok()&lt;/div&gt;&lt;div&gt;WaterLevelSensor_catDetected()&lt;br&gt;&lt;/div&gt;" style="text;html=1;strokeColor=none;fillColor=none;align=center;verticalAlign=middle;whiteSpace=wrap;rounded=0;" vertex="1" parent="1">
          <mxGeometry x="319" y="790" width="60" height="30" as="geometry" />
        </mxCell>
        <mxCell id="f3NqG187g-GbprsVJhg_-39" value="WaterTImer_splashTime()" style="text;html=1;strokeColor=none;fillColor=none;align=center;verticalAlign=middle;whiteSpace=wrap;rounded=0;" vertex="1" parent="1">
          <mxGeometry x="309" y="890" width="60" height="30" as="geometry" />
        </mxCell>
      </root>
    </mxGraphModel>
  </diagram>
</mxfile>
